<?xml version="1.0" ?><svg style="enable-background:new 0 0 48 48.00004;" version="1.1" viewBox="0 0 48 48.00004" xml:space="preserve" xmlns="http://www.w3.org/2000/svg" xmlns:xlink="http://www.w3.org/1999/xlink"><g id="Icons"><path d="M11.65146,14.13105h12.34943v19.73793H11.65146c-0.56628,0-1.02535-0.45906-1.02535-1.02534V15.1564   C10.62612,14.59012,11.08518,14.13105,11.65146,14.13105z" style="fill:#65C3E8;"/><polyline points="21.27911,28.2015 21.27911,29.9615 13.16911,29.9615 13.16911,27.8315 19.3405,27.8315     " style="fill:#CAEDFF;"/><polyline points="19.39026,20.1615 13.16911,20.1615 13.16911,18.0415 21.27911,18.0415 21.27911,19.7915     " style="fill:#CAEDFF;"/><path d="M36.34854,14.13105H23.99911v19.73793h12.34943c0.56628,0,1.02534-0.45906,1.02534-1.02534V15.1564   C37.37388,14.59012,36.91482,14.13105,36.34854,14.13105z" style="fill:#2E6FB7;"/><rect height="2.12573" style="fill:#1B568C;" width="8.11103" x="26.72482" y="18.04033"/><polyline points="27.152,22.9415 34.8391,22.9415 34.8391,25.0615 27.15692,25.0615  " style="fill:#1B568C;"/><rect height="2.12573" style="fill:#1B568C;" width="8.11103" x="26.72482" y="27.83399"/><path d="M19.53764,28.42936v-8.85868c0-0.33947,0.29269-0.56549,0.55065-0.42522l8.14544,4.42934   c0.30485,0.16577,0.30485,0.68467,0,0.85044l-8.14544,4.42934C19.83033,28.99485,19.53764,28.76884,19.53764,28.42936z" style="fill:#FFFFFF;"/><polyline points="19.39026,25.0615 13.16911,25.0615 13.16911,22.9415 19.35993,22.9415  " style="fill:#CAEDFF;"/><path d="   M11.62732,33.86898h24.74536c0.55295,0,1.0012-0.44825,1.0012-1.0012V15.13226c0-0.55295-0.44825-1.0012-1.0012-1.0012H11.62732   c-0.55295,0-1.0012,0.44825-1.0012,1.0012v17.73553C10.62612,33.42073,11.07437,33.86898,11.62732,33.86898z" style="fill:none;stroke:#303030;stroke-width:0.7;stroke-linecap:round;stroke-linejoin:round;stroke-miterlimit:10;"/><path d="   M19.53764,28.42936v-8.85868c0-0.33947,0.29269-0.56549,0.55065-0.42522l8.14544,4.42934   c0.30485,0.16577,0.30485,0.68467,0,0.85044l-8.14544,4.42934C19.83033,28.99485,19.53764,28.76884,19.53764,28.42936z" style="fill:none;stroke:#303030;stroke-width:0.7;stroke-linecap:round;stroke-linejoin:round;stroke-miterlimit:10;"/><line style="fill:none;stroke:#303030;stroke-width:0.7;stroke-linecap:round;stroke-linejoin:round;stroke-miterlimit:10;" x1="23.99911" x2="23.99911" y1="33.76162" y2="26.85223"/><line style="fill:none;stroke:#303030;stroke-width:0.7;stroke-linecap:round;stroke-linejoin:round;stroke-miterlimit:10;" x1="23.99911" x2="23.99911" y1="21.12183" y2="14.22638"/><polyline points="   19.39026,20.1615 13.16911,20.1615 13.16911,18.0415 21.27911,18.0415 21.27911,19.65703  " style="fill:none;stroke:#303030;stroke-width:0.7;stroke-linecap:round;stroke-linejoin:round;stroke-miterlimit:10;"/><polyline points="   19.39026,25.0615 13.16911,25.0615 13.16911,22.9415 19.35993,22.9415  " style="fill:none;stroke:#303030;stroke-width:0.7;stroke-linecap:round;stroke-linejoin:round;stroke-miterlimit:10;"/><polyline points="   21.27911,28.30486 21.27911,29.9615 13.16911,29.9615 13.16911,27.8315 19.3405,27.8315  " style="fill:none;stroke:#303030;stroke-width:0.7;stroke-linecap:round;stroke-linejoin:round;stroke-miterlimit:10;"/><rect height="2.12573" style="fill:none;stroke:#303030;stroke-width:0.7;stroke-linecap:round;stroke-linejoin:round;stroke-miterlimit:10;" width="8.11103" x="26.72482" y="18.04033"/><polyline points="   27.152,22.9415 34.8391,22.9415 34.8391,25.0615 27.15692,25.0615  " style="fill:none;stroke:#303030;stroke-width:0.7;stroke-linecap:round;stroke-linejoin:round;stroke-miterlimit:10;"/><rect height="2.12573" style="fill:none;stroke:#303030;stroke-width:0.7;stroke-linecap:round;stroke-linejoin:round;stroke-miterlimit:10;" width="8.11103" x="26.72482" y="27.83399"/></g></svg>